<svg xmlns="http://www.w3.org/2000/svg" viewBox="80.07000350952148 111.14395057609929 432.92999267578125 326.2764105744077"><rect height="100%" width="100%" x="80.07000350952148" y="111.14395057609929" fill="rgba(15, 23, 35, 1)"/> <svg xmlns="http://www.w3.org/2000/svg" xmlns:xlink="http://www.w3.org/1999/xlink" version="1.1" x="222.29320261622635" y="181.1439505760993" viewBox="235.3000030517578 218.3000030517578 289.9000244140625 324" xml:space="preserve" height="145.74625420318336" width="130.4069568943424" preserveAspectRatio="xMinYMin" enable-background="new 0 0 760.6 760.6" style="overflow: visible;"><g id="Isolation_Mode" style=""></g><g id="Layer_2" style=""></g><g id="Layer_2" style=""></g><linearGradient id="SVGID_1_" gradientUnits="userSpaceOnUse" x1="230.1856" y1="250.2569" x2="482.8915" y2="472.6099" style=""><stop offset="0" style="stop-color: #7DC242;"></stop><stop offset="1" style="stop-color: #1B468E;"></stop></linearGradient><path class="st0" d="M478.4,422.3c-26.6-20.8-53.1-23.8-66-7.4c-6.3,8.1-7.4,18.8-3,30.1c4.3,11,13.3,22.1,26.1,32.2    c5.6,4.4,11.3,8,17,10.9c0,4.4,3.6,8,8,8c4.4,0,8-3.6,8-8c0-4.4-3.6-8-8-8c-2.4,0-4.6,1.1-6,2.8c-5.1-2.6-10.3-6-15.5-10    c-12-9.4-20.4-19.7-24.3-29.8c-3.7-9.6-2.9-18.1,2.2-24.7c10.8-13.8,34.2-10.4,58.2,8.4c12,9.4,20.4,19.7,24.3,29.8    c3.7,9.6,2.9,18.1-2.2,24.7c-3.1,4-7.2,6.5-12.3,7.7l1.2,5.4c6.3-1.5,11.5-4.7,15.4-9.7c6.3-8.1,7.4-18.8,3.1-30.1    C500.2,443.5,491.2,432.3,478.4,422.3z M460.4,485.6c1.3,0,2.4,1.1,2.4,2.4c0,1.3-1.1,2.4-2.4,2.4c-1.3,0-2.4-1.1-2.4-2.4    C457.9,486.7,459,485.6,460.4,485.6z" style="fill: url(#SVGID_1_);"></path><linearGradient id="SVGID_2_" gradientUnits="userSpaceOnUse" x1="230.1874" y1="250.2549" x2="482.8933" y2="472.6078" style=""><stop offset="0" style="stop-color: #7DC242;"></stop><stop offset="1" style="stop-color: #1B468E;"></stop></linearGradient><path class="st1" d="M485.7,456c-3.9-6.7-10.3-13.7-18.2-19.9c-14.9-11.6-34.4-19.3-41.3-10.4c-6.9,8.8,5.2,26,20,37.6    c7.9,6.2,16.3,10.8,23.7,12.9c3,0.9,5.8,1.3,8.3,1.3c4.2,0,7.4-1.3,9.4-3.8C490.7,469.7,490,463.5,485.7,456z M483.2,470.3    c-1.6,2-5.9,2.2-11.7,0.6c-6.7-2-14.5-6.2-21.8-12c-15-11.8-22.5-25.5-19.1-29.8c0.9-1.1,2.6-1.7,4.9-1.7    c6.4,0,17.5,4.4,28.6,13.1c7.3,5.7,13.3,12.3,16.8,18.3C483.9,464,484.8,468.3,483.2,470.3z" style="fill: url(#SVGID_2_);"></path><linearGradient id="SVGID_3_" gradientUnits="userSpaceOnUse" x1="240.5264" y1="238.5045" x2="493.2323" y2="460.8575" style=""><stop offset="0" style="stop-color: #7DC242;"></stop><stop offset="1" style="stop-color: #1B468E;"></stop></linearGradient><path class="st2" d="M357,371.5c-12.8,16.3-20,35.4-21,55.2c-2.6,1.3-4.4,4-4.4,7.1c0,4.4,3.6,8,8,8s8-3.6,8-8    c0-3.7-2.6-6.8-6-7.7c1.1-18.3,7.8-36,19.7-51.1c35.5-45.4,99.1-47.5,154.7-5.2l3.4-4.4C461.3,321,394.5,323.6,357,371.5z     M339.7,436.2c-1.3,0-2.4-1.1-2.4-2.4s1.1-2.4,2.4-2.4c1.3,0,2.4,1.1,2.4,2.4S341.1,436.2,339.7,436.2z" style="fill: url(#SVGID_3_);"></path><linearGradient id="SVGID_4_" gradientUnits="userSpaceOnUse" x1="168.3738" y1="320.5065" x2="421.0797" y2="542.8594" style=""><stop offset="0" style="stop-color: #7DC242;"></stop><stop offset="1" style="stop-color: #1B468E;"></stop></linearGradient><path class="st3" d="M346.2,461.4l-5.3,1.7c8.2,25.6,25.9,49.6,51.1,69.4c4.6,3.6,9.3,6.9,13.8,9.8l3-4.7c-4.4-2.8-8.9-6-13.4-9.5    C371.1,509,354.1,486,346.2,461.4z" style="fill: url(#SVGID_4_);"></path><linearGradient id="SVGID_5_" gradientUnits="userSpaceOnUse" x1="281.9073" y1="191.4749" x2="534.6132" y2="413.8278" style=""><stop offset="0" style="stop-color: #7DC242;"></stop><stop offset="1" style="stop-color: #1B468E;"></stop></linearGradient><path class="st4" d="M461.3,355.1l-1.4,5.4c16.3,4.4,32.3,12.7,47.6,24.7c4.8,3.8,9.2,7.6,13,11.4l3.9-3.9c-4-4-8.6-8-13.5-11.9    C495,368.4,478.3,359.7,461.3,355.1z" style="fill: url(#SVGID_5_);"></path><linearGradient id="SVGID_6_" gradientUnits="userSpaceOnUse" x1="223.4036" y1="257.9648" x2="476.1095" y2="480.3177" style=""><stop offset="0" style="stop-color: #7DC242;"></stop><stop offset="1" style="stop-color: #1B468E;"></stop></linearGradient><path class="st5" d="M361.5,449.9c-5.6-23.3-0.8-45.5,13.8-64.1c13.8-17.6,32.9-27.5,55.4-28.6c1.2,3,4,5.1,7.4,5.1    c4.4,0,8-3.6,8-8s-3.6-8-8-8c-3.5,0-6.4,2.2-7.5,5.3c-24.2,1.1-44.8,11.7-59.7,30.7c-15.4,19.7-20.7,44.1-14.8,68.8    c5.8,24.4,22.5,48.4,46.8,67.5c10.9,8.5,22.4,15.4,34.1,20.3l2.2-5.1c-11.2-4.7-22.3-11.3-32.8-19.6    C382.9,496,367,473.1,361.5,449.9z M438,351.9c1.3,0,2.4,1.1,2.4,2.4c0,1.3-1.1,2.4-2.4,2.4c-1.3,0-2.4-1.1-2.4-2.4    C435.6,353,436.7,351.9,438,351.9z" style="fill: url(#SVGID_6_);"></path><linearGradient id="SVGID_7_" gradientUnits="userSpaceOnUse" x1="230.1956" y1="250.2455" x2="482.9015" y2="472.5985" style=""><stop offset="0" style="stop-color: #7DC242;"></stop><stop offset="1" style="stop-color: #1B468E;"></stop></linearGradient><path class="st6" d="M520.7,423.6l4.5-3.3c-6.7-9.2-15.2-17.9-25.2-25.7c-42.5-33.3-89.9-33.9-115.4-1.5    c-23.3,29.8-15.1,71.8,20.5,104.4l3.8-4.1c-33.3-30.6-41.3-69.5-19.9-96.9c23.4-29.9,67.7-28.9,107.6,2.4    C506.2,406.5,514.3,414.8,520.7,423.6z" style="fill: url(#SVGID_7_);"></path><linearGradient id="SVGID_8_" gradientUnits="userSpaceOnUse" x1="190.5516" y1="295.3013" x2="443.2575" y2="517.6542" style=""><stop offset="0" style="stop-color: #7DC242;"></stop><stop offset="1" style="stop-color: #1B468E;"></stop></linearGradient><path class="st7" d="M413.7,504.8c15.9,12.5,33.1,20.7,49.7,23.8l1-5.5c-15.7-3-32.1-10.8-47.3-22.7L413.7,504.8z" style="fill: url(#SVGID_8_);"></path><linearGradient id="SVGID_9_" gradientUnits="userSpaceOnUse" x1="260.0865" y1="216.2744" x2="512.7924" y2="438.6273" style=""><stop offset="0" style="stop-color: #7DC242;"></stop><stop offset="1" style="stop-color: #1B468E;"></stop></linearGradient><path class="st8" d="M493.8,412.2l-3.6,4.2c12.6,10.7,21.5,22.8,25.9,34.8l5.2-1.9C516.6,436.4,507.1,423.6,493.8,412.2z" style="fill: url(#SVGID_9_);"></path><linearGradient id="SVGID_10_" gradientUnits="userSpaceOnUse" x1="250.4153" y1="227.2658" x2="503.1212" y2="449.6187" style=""><stop offset="0" style="stop-color: #7DC242;"></stop><stop offset="1" style="stop-color: #1B468E;"></stop></linearGradient><path class="st9" d="M410.2,393.5l2.9,4.7c16.9-10.4,41.4-6.9,65.6,9.4l3.1-4.6C455.7,385.4,428.9,381.9,410.2,393.5z" style="fill: url(#SVGID_10_);"></path><linearGradient id="SVGID_11_" gradientUnits="userSpaceOnUse" x1="211.9787" y1="270.9492" x2="464.6846" y2="493.3022" style=""><stop offset="0" style="stop-color: #7DC242;"></stop><stop offset="1" style="stop-color: #1B468E;"></stop></linearGradient><path class="st10" d="M428,486.6c-26.5-20.7-38.2-45.8-31.7-66.6c0.7,0.2,1.4,0.3,2.1,0.3c4.4,0,8-3.6,8-8s-3.6-8-8-8s-8,3.6-8,8    c0,1.5,0.5,3,1.2,4.2c-8.5,23.4,3.8,51.6,32.9,74.5c18.1,14.2,37,21.8,53.9,21.8c2.7,0,5.3-0.2,7.9-0.6l-0.8-5.5    C468.2,509.3,447.8,502.1,428,486.6z M398.4,409.9c1.3,0,2.4,1.1,2.4,2.4s-1.1,2.4-2.4,2.4c-1.3,0-2.4-1.1-2.4-2.4    S397,409.9,398.4,409.9z" style="fill: url(#SVGID_11_);"></path><linearGradient id="SVGID_12_" gradientUnits="userSpaceOnUse" x1="254.2245" y1="222.9366" x2="506.9304" y2="445.2895" style=""><stop offset="0" style="stop-color: #7DC242;"></stop><stop offset="1" style="stop-color: #1B468E;"></stop></linearGradient><path class="st11" d="M325.7,224.6l-2.6-4.9c-28.3,15.2-53.4,36.1-74.4,62.2l4.3,3.5C273.6,259.8,298,239.4,325.7,224.6z" style="fill: url(#SVGID_12_);"></path><linearGradient id="SVGID_13_" gradientUnits="userSpaceOnUse" x1="297.614" y1="173.624" x2="550.3199" y2="395.9769" style=""><stop offset="0" style="stop-color: #7DC242;"></stop><stop offset="1" style="stop-color: #1B468E;"></stop></linearGradient><path class="st12" d="M374.6,223.6l-1.5-5.3c-11,3.2-21.9,7.2-32.2,12.1l2.4,5C353.3,230.7,363.8,226.7,374.6,223.6z" style="fill: url(#SVGID_13_);"></path><linearGradient id="SVGID_14_" gradientUnits="userSpaceOnUse" x1="231.5555" y1="248.7001" x2="484.2614" y2="471.053" style=""><stop offset="0" style="stop-color: #7DC242;"></stop><stop offset="1" style="stop-color: #1B468E;"></stop></linearGradient><path class="st13" d="M264.5,299.1c13.1-16.8,28.1-31.3,44.6-43.4c1.3,1,3,1.7,4.8,1.7c4.4,0,8-3.6,8-8c0-4.4-3.6-8-8-8    s-8,3.6-8,8c0,0.6,0.1,1.1,0.2,1.6c-17,12.4-32.5,27.4-46,44.6c-9.6,12.2-17.9,25.3-24.8,38.9l5,2.5    C247,323.8,255.2,311,264.5,299.1z M314,246.9c1.3,0,2.4,1.1,2.4,2.4c0,1.3-1.1,2.4-2.4,2.4s-2.4-1.1-2.4-2.4    C311.5,248,312.6,246.9,314,246.9z" style="fill: url(#SVGID_14_);"></path><linearGradient id="SVGID_15_" gradientUnits="userSpaceOnUse" x1="244.4742" y1="234.0178" x2="497.1801" y2="456.3708" style=""><stop offset="0" style="stop-color: #7DC242;"></stop><stop offset="1" style="stop-color: #1B468E;"></stop></linearGradient><path class="st14" d="M408.9,234.5l-0.7-5.5c-53.3,6.7-99.7,33.5-134.2,77.5c-16.9,21.6-29.2,45.2-36.6,70.3l5.3,1.6    c7.2-24.4,19.2-47.5,35.6-68.5C311.9,267.1,357.1,241,408.9,234.5z" style="fill: url(#SVGID_15_);"></path><linearGradient id="SVGID_16_" gradientUnits="userSpaceOnUse" x1="239.4364" y1="239.7433" x2="492.1423" y2="462.0963" style=""><stop offset="0" style="stop-color: #7DC242;"></stop><stop offset="1" style="stop-color: #1B468E;"></stop></linearGradient><path class="st15" d="M434,250.5c0.8,0,1.7,0,2.6,0l0.3-5.6c-1,0-1.9-0.1-2.9-0.1c-57.7,0-109.6,25.7-146.1,72.4    c-22.9,29.2-36.7,63.1-40.1,98.1l5.5,0.5c3.3-34,16.7-66.9,38.9-95.2C327.7,275.5,378,250.5,434,250.5z" style="fill: url(#SVGID_16_);"></path><linearGradient id="SVGID_17_" gradientUnits="userSpaceOnUse" x1="280.8209" y1="192.7096" x2="533.5267" y2="415.0625" style=""><stop offset="0" style="stop-color: #7DC242;"></stop><stop offset="1" style="stop-color: #1B468E;"></stop></linearGradient><path class="st16" d="M317.2,310.7l3.9,4c30.8-30.5,69.8-46.5,112.8-46.5c8.7,0,17.5,0.7,26,2l0.8-5.5c-8.8-1.4-17.8-2.1-26.8-2.1    C389.5,262.5,349.1,279.2,317.2,310.7z" style="fill: url(#SVGID_17_);"></path><linearGradient id="SVGID_18_" gradientUnits="userSpaceOnUse" x1="187.6334" y1="298.6178" x2="440.3393" y2="520.9708" style=""><stop offset="0" style="stop-color: #7DC242;"></stop><stop offset="1" style="stop-color: #1B468E;"></stop></linearGradient><path class="st17" d="M303.1,335.6c0.7,0.2,1.4,0.3,2.1,0.3c4.4,0,8-3.6,8-8s-3.6-8-8-8s-8,3.6-8,8c0,1.7,0.5,3.2,1.4,4.5    c-26.7,36-38.1,77.4-32.9,119.8l5.5-0.7C266.1,410.4,277.2,370.4,303.1,335.6z M305.2,325.4c1.3,0,2.4,1.1,2.4,2.4    s-1.1,2.4-2.4,2.4c-1.3,0-2.4-1.1-2.4-2.4S303.8,325.4,305.2,325.4z" style="fill: url(#SVGID_18_);"></path><linearGradient id="SVGID_19_" gradientUnits="userSpaceOnUse" x1="230.5954" y1="249.7912" x2="483.3013" y2="472.1442" style=""><stop offset="0" style="stop-color: #7DC242;"></stop><stop offset="1" style="stop-color: #1B468E;"></stop></linearGradient><path class="st18" d="M319.9,342.4c38.5-49.1,98.1-67.9,159.6-50.1l1.5-5.3c-63.7-18.4-125.6,1-165.5,52    c-34.1,43.6-42.3,97.8-22.5,148.8l5.2-2C279.1,436.7,287,384.4,319.9,342.4z" style="fill: url(#SVGID_19_);"></path><linearGradient id="SVGID_20_" gradientUnits="userSpaceOnUse" x1="289.6946" y1="182.6245" x2="542.4005" y2="404.9775" style=""><stop offset="0" style="stop-color: #7DC242;"></stop><stop offset="1" style="stop-color: #1B468E;"></stop></linearGradient><path class="st19" d="M377.4,310.7l2.4,5c34.6-16.6,75.6-16.2,115.7,1.2l2.2-5.1C456.1,293.8,413.4,293.4,377.4,310.7z" style="fill: url(#SVGID_20_);"></path><linearGradient id="SVGID_21_" gradientUnits="userSpaceOnUse" x1="196.5738" y1="288.457" x2="449.2797" y2="510.81" style=""><stop offset="0" style="stop-color: #7DC242;"></stop><stop offset="1" style="stop-color: #1B468E;"></stop></linearGradient><path class="st20" d="M333.7,353.3c5.6-7.1,11.8-13.6,18.4-19.3c1.3,0.8,2.8,1.3,4.4,1.3c4.4,0,8-3.6,8-8s-3.6-8-8-8s-8,3.6-8,8    c0,0.8,0.1,1.5,0.3,2.2c-7,6-13.6,12.8-19.5,20.4c-38.7,49.4-38.7,113.7,0.1,168l4.5-3.2C296.1,461.7,296.1,401.4,333.7,353.3z     M356.5,324.9c1.3,0,2.4,1.1,2.4,2.4s-1.1,2.4-2.4,2.4s-2.4-1.1-2.4-2.4S355.1,324.9,356.5,324.9z" style="fill: url(#SVGID_21_);"></path><linearGradient id="SVGID_22_" gradientUnits="userSpaceOnUse" x1="228.9989" y1="251.6056" x2="481.7048" y2="473.9586" style=""><stop offset="0" style="stop-color: #7DC242;"></stop><stop offset="1" style="stop-color: #1B468E;"></stop></linearGradient><path class="st21" d="M347.6,364.1c37.6-48,100.5-56.3,160.2-21.2l2.8-4.8c-62.3-36.7-127.9-27.8-167.4,22.5    c-41.4,53-30.9,123.5,26.2,175.6l3.7-4.1C318.3,482.2,308,414.6,347.6,364.1z" style="fill: url(#SVGID_22_);"></path></svg> <svg xmlns="http://www.w3.org/2000/svg" y="329.2503629815617" viewBox="3.4800000190734863 11.359999656677246 292.92999267578125 38.16999816894531" x="150.07000350952148" height="38.16999816894531" width="292.92999267578125" style="overflow: visible;"><g fill="#ffffff" fill-opacity="1" style=""><path d="M21.55 41.44L3.48 41.44L3.48 13.22L21.55 13.22L21.55 17.26L8.05 17.26L8.05 25.11L20.30 25.11L20.30 29.15L8.05 29.15L8.05 37.40L21.55 37.40L21.55 41.44ZM29.48 41.44L24.79 41.44L32.18 30.81L24.99 20.42L30.08 20.42L34.81 27.74L34.93 27.74L39.79 20.42L44.48 20.42L37.28 30.77L44.60 41.44L39.50 41.44L34.65 33.80L34.53 33.80L29.48 41.44ZM48.56 49.53L48.56 20.42L52.97 20.42L52.97 23.90L53.17 23.90Q53.86 22.00 55.41 20.96Q56.97 19.93 59.07 19.93L59.07 19.93Q63.08 19.93 65.26 22.82Q67.44 25.72 67.44 30.93L67.44 30.93Q67.44 36.15 65.26 39.04Q63.08 41.93 59.07 41.93L59.07 41.93Q56.97 41.93 55.41 40.88Q53.86 39.83 53.17 37.97L53.17 37.97L52.97 37.97L52.97 49.53L48.56 49.53ZM57.74 38.13L57.74 38.13Q60.04 38.13 61.42 36.65Q62.79 35.18 62.79 32.75L62.79 32.75L62.79 29.11Q62.79 26.69 61.42 25.21Q60.04 23.73 57.74 23.73L57.74 23.73Q55.72 23.73 54.34 24.72Q52.97 25.72 52.97 27.33L52.97 27.33L52.97 34.53Q52.97 36.15 54.34 37.14Q55.72 38.13 57.74 38.13ZM80.74 41.93L80.74 41.93Q78.48 41.93 76.70 41.16Q74.92 40.39 73.67 38.96Q72.42 37.52 71.75 35.48Q71.08 33.44 71.08 30.93L71.08 30.93Q71.08 28.42 71.75 26.38Q72.42 24.34 73.67 22.91Q74.92 21.47 76.70 20.70Q78.48 19.93 80.74 19.93L80.74 19.93Q83.05 19.93 84.81 20.74Q86.57 21.55 87.74 22.99Q88.91 24.42 89.50 26.32Q90.08 28.22 90.08 30.41L90.08 30.41L90.08 32.06L75.65 32.06L75.65 32.75Q75.65 35.18 77.09 36.73Q78.52 38.29 81.19 38.29L81.19 38.29Q83.13 38.29 84.46 37.44Q85.80 36.59 86.73 35.14L86.73 35.14L89.32 37.68Q88.14 39.62 85.92 40.78Q83.70 41.93 80.74 41.93ZM80.74 23.37L80.74 23.37Q79.61 23.37 78.66 23.77Q77.71 24.18 77.04 24.91Q76.38 25.63 76.01 26.65Q75.65 27.66 75.65 28.87L75.65 28.87L75.65 29.15L85.43 29.15L85.43 28.75Q85.43 26.32 84.18 24.85Q82.93 23.37 80.74 23.37ZM99.38 41.44L94.98 41.44L94.98 20.42L99.38 20.42L99.38 24.46L99.59 24.46Q100.03 22.84 101.45 21.63Q102.86 20.42 105.37 20.42L105.37 20.42L106.54 20.42L106.54 24.66L104.80 24.66Q102.17 24.66 100.78 25.51Q99.38 26.36 99.38 28.02L99.38 28.02L99.38 41.44ZM112.69 16.66L112.69 16.66Q111.31 16.66 110.68 16.01Q110.06 15.36 110.06 14.35L110.06 14.35L110.06 13.67Q110.06 12.66 110.68 12.01Q111.31 11.36 112.69 11.36L112.69 11.36Q114.06 11.36 114.67 12.01Q115.27 12.66 115.27 13.67L115.27 13.67L115.27 14.35Q115.27 15.36 114.67 16.01Q114.06 16.66 112.69 16.66ZM110.46 41.44L110.46 20.42L114.87 20.42L114.87 41.44L110.46 41.44ZM129.43 41.93L129.43 41.93Q127.16 41.93 125.38 41.16Q123.60 40.39 122.35 38.96Q121.10 37.52 120.43 35.48Q119.76 33.44 119.76 30.93L119.76 30.93Q119.76 28.42 120.43 26.38Q121.10 24.34 122.35 22.91Q123.60 21.47 125.38 20.70Q127.16 19.93 129.43 19.93L129.43 19.93Q131.73 19.93 133.49 20.74Q135.25 21.55 136.42 22.99Q137.59 24.42 138.18 26.32Q138.77 28.22 138.77 30.41L138.77 30.41L138.77 32.06L124.33 32.06L124.33 32.75Q124.33 35.18 125.77 36.73Q127.20 38.29 129.87 38.29L129.87 38.29Q131.81 38.29 133.15 37.44Q134.48 36.59 135.41 35.14L135.41 35.14L138.00 37.68Q136.82 39.62 134.60 40.78Q132.38 41.93 129.43 41.93ZM129.43 23.37L129.43 23.37Q128.29 23.37 127.34 23.77Q126.39 24.18 125.73 24.91Q125.06 25.63 124.69 26.65Q124.33 27.66 124.33 28.87L124.33 28.87L124.33 29.15L134.12 29.15L134.12 28.75Q134.12 26.32 132.86 24.85Q131.61 23.37 129.43 23.37ZM148.07 41.44L143.66 41.44L143.66 20.42L148.07 20.42L148.07 23.90L148.27 23.90Q148.95 22.20 150.35 21.07Q151.74 19.93 154.17 19.93L154.17 19.93Q157.41 19.93 159.20 22.06Q161.00 24.18 161.00 28.10L161.00 28.10L161.00 41.44L156.60 41.44L156.60 28.67Q156.60 23.73 152.63 23.73L152.63 23.73Q151.78 23.73 150.96 23.96Q150.13 24.18 149.48 24.62Q148.83 25.07 148.45 25.76Q148.07 26.44 148.07 27.37L148.07 27.37L148.07 41.44ZM175.24 41.93L175.24 41.93Q172.97 41.93 171.19 41.16Q169.41 40.39 168.20 38.96Q166.99 37.52 166.34 35.48Q165.69 33.44 165.69 30.93L165.69 30.93Q165.69 28.42 166.34 26.38Q166.99 24.34 168.20 22.91Q169.41 21.47 171.19 20.70Q172.97 19.93 175.24 19.93L175.24 19.93Q178.39 19.93 180.41 21.35Q182.43 22.76 183.36 25.11L183.36 25.11L179.72 26.81Q179.28 25.35 178.17 24.48Q177.06 23.61 175.24 23.61L175.24 23.61Q172.81 23.61 171.58 25.13Q170.34 26.65 170.34 29.07L170.34 29.07L170.34 32.83Q170.34 35.26 171.58 36.77Q172.81 38.29 175.24 38.29L175.24 38.29Q177.18 38.29 178.33 37.34Q179.48 36.39 180.17 34.81L180.17 34.81L183.52 36.59Q182.47 39.18 180.37 40.55Q178.27 41.93 175.24 41.93ZM195.74 41.93L195.74 41.93Q193.47 41.93 191.69 41.16Q189.91 40.39 188.66 38.96Q187.41 37.52 186.74 35.48Q186.07 33.44 186.07 30.93L186.07 30.93Q186.07 28.42 186.74 26.38Q187.41 24.34 188.66 22.91Q189.91 21.47 191.69 20.70Q193.47 19.93 195.74 19.93L195.74 19.93Q198.04 19.93 199.80 20.74Q201.56 21.55 202.73 22.99Q203.90 24.42 204.49 26.32Q205.08 28.22 205.08 30.41L205.08 30.41L205.08 32.06L190.64 32.06L190.64 32.75Q190.64 35.18 192.08 36.73Q193.51 38.29 196.18 38.29L196.18 38.29Q198.12 38.29 199.46 37.44Q200.79 36.59 201.72 35.14L201.72 35.14L204.31 37.68Q203.13 39.62 200.91 40.78Q198.69 41.93 195.74 41.93ZM195.74 23.37L195.74 23.37Q194.60 23.37 193.65 23.77Q192.70 24.18 192.04 24.91Q191.37 25.63 191.00 26.65Q190.64 27.66 190.64 28.87L190.64 28.87L190.64 29.15L200.43 29.15L200.43 28.75Q200.43 26.32 199.17 24.85Q197.92 23.37 195.74 23.37ZM218.34 41.93L218.34 41.93Q214.78 41.93 212.29 40.63Q209.81 39.34 208.03 37.16L208.03 37.16L211.18 34.21Q212.68 36.03 214.48 36.96Q216.28 37.89 218.58 37.89L218.58 37.89Q221.29 37.89 222.66 36.67Q224.04 35.46 224.04 33.40L224.04 33.40Q224.04 31.74 223.07 30.77Q222.10 29.80 219.63 29.31L219.63 29.31L217.12 28.87Q213.00 28.10 210.94 26.16Q208.88 24.22 208.88 20.82L208.88 20.82Q208.88 18.96 209.58 17.45Q210.29 15.93 211.56 14.90Q212.84 13.87 214.66 13.30Q216.48 12.74 218.74 12.74L218.74 12.74Q221.94 12.74 224.28 13.85Q226.63 14.96 228.28 17.06L228.28 17.06L225.09 19.89Q224.00 18.48 222.42 17.63Q220.84 16.78 218.50 16.78L218.50 16.78Q216.07 16.78 214.74 17.75Q213.40 18.72 213.40 20.58L213.40 20.58Q213.40 22.36 214.50 23.23Q215.59 24.10 217.89 24.54L217.89 24.54L220.40 25.07Q224.64 25.88 226.61 27.82Q228.57 29.76 228.57 33.15L228.57 33.15Q228.57 35.14 227.88 36.75Q227.19 38.37 225.88 39.52Q224.56 40.68 222.66 41.30Q220.76 41.93 218.34 41.93ZM241.99 41.93L241.99 41.93Q239.81 41.93 238.01 41.16Q236.21 40.39 234.96 38.96Q233.70 37.52 233.01 35.48Q232.33 33.44 232.33 30.93L232.33 30.93Q232.33 28.42 233.01 26.38Q233.70 24.34 234.96 22.91Q236.21 21.47 238.01 20.70Q239.81 19.93 241.99 19.93L241.99 19.93Q244.17 19.93 245.97 20.70Q247.77 21.47 249.03 22.91Q250.28 24.34 250.97 26.38Q251.65 28.42 251.65 30.93L251.65 30.93Q251.65 33.44 250.97 35.48Q250.28 37.52 249.03 38.96Q247.77 40.39 245.97 41.16Q244.17 41.93 241.99 41.93ZM241.99 38.29L241.99 38.29Q244.25 38.29 245.63 36.89Q247.00 35.50 247.00 32.71L247.00 32.71L247.00 29.15Q247.00 26.36 245.63 24.97Q244.25 23.57 241.99 23.57L241.99 23.57Q239.73 23.57 238.35 24.97Q236.98 26.36 236.98 29.15L236.98 29.15L236.98 32.71Q236.98 35.50 238.35 36.89Q239.73 38.29 241.99 38.29ZM263.86 41.44L261.03 41.44Q258.77 41.44 257.66 40.29Q256.55 39.14 256.55 37.08L256.55 37.08L256.55 11.52L260.95 11.52L260.95 37.85L263.86 37.85L263.86 41.44ZM270.29 16.66L270.29 16.66Q268.92 16.66 268.29 16.01Q267.67 15.36 267.67 14.35L267.67 14.35L267.67 13.67Q267.67 12.66 268.29 12.01Q268.92 11.36 270.29 11.36L270.29 11.36Q271.67 11.36 272.27 12.01Q272.88 12.66 272.88 13.67L272.88 13.67L272.88 14.35Q272.88 15.36 272.27 16.01Q271.67 16.66 270.29 16.66ZM268.07 41.44L268.07 20.42L272.48 20.42L272.48 41.44L268.07 41.44ZM292.01 41.44L292.01 37.97L291.80 37.97Q291.12 39.83 289.56 40.88Q288.00 41.93 285.90 41.93L285.90 41.93Q281.90 41.93 279.71 39.04Q277.53 36.15 277.53 30.93L277.53 30.93Q277.53 25.72 279.71 22.82Q281.90 19.93 285.90 19.93L285.90 19.93Q288.00 19.93 289.56 20.96Q291.12 22.00 291.80 23.90L291.80 23.90L292.01 23.90L292.01 11.52L296.41 11.52L296.41 41.44L292.01 41.44ZM287.23 38.13L287.23 38.13Q289.26 38.13 290.63 37.14Q292.01 36.15 292.01 34.53L292.01 34.53L292.01 27.33Q292.01 25.72 290.63 24.72Q289.26 23.73 287.23 23.73L287.23 23.73Q284.93 23.73 283.56 25.21Q282.18 26.69 282.18 29.11L282.18 29.11L282.18 32.75Q282.18 35.18 283.56 36.65Q284.93 38.13 287.23 38.13Z" transform="translate(0, 0)"></path></g></svg></svg>